<?xml version="1.0" encoding="utf-8"?>
<!-- Generator: Adobe Illustrator 28.2.0, SVG Export Plug-In . SVG Version: 6.00 Build 0)  -->
<svg version="1.1" id="Laag_2" xmlns="http://www.w3.org/2000/svg" xmlns:xlink="http://www.w3.org/1999/xlink" x="0px" y="0px"
	 viewBox="0 0 370.9 370.9" style="enable-background:new 0 0 370.9 370.9;" xml:space="preserve">
<style type="text/css">
	.st0{fill:#FFFFFF;}
	.st1{fill:#5BC5F2;}
	.st2{enable-background:new    ;}
</style>
<circle class="st0" cx="185.4" cy="185.4" r="185.7"/>
<path class="st1" d="M292.4,104.1l-90-52c-10.5-6.1-23.4-6.1-33.9,0l-90,52c-10.5,6.1-16.9,17.3-16.9,29.4v103.9
	c0,12.1,6.5,23.3,16.9,29.4l90,52c10.5,6.1,23.4,6.1,33.9,0l90-52c10.5-6.1,16.9-17.3,16.9-29.4V133.5
	C309.4,121.4,302.9,110.2,292.4,104.1z M153.3,138.2c-6.7,0-10.9,0.8-12.2,2.2s-2,4.1-2.1,8.1c-0.3,11.1-0.6,18.4-1,21.7
	c-0.5,3.4-1.6,6.6-3.1,9.6c-1.6,3-4.6,6-9,8.7c4.2,2.6,7.2,5.6,9.1,9.1c1.9,3.3,3.1,8.5,3.3,15.1l1.1,20.2c0.3,1.9,1.5,3.5,3.1,4.5
	c1.5,0.9,5.1,1.5,10.8,1.5v16.7h-3.6c-7.4,0-13.1-0.9-17.2-2.5c-3.9-1.5-7-4.5-8.8-8.3c-1.8-3.9-2.7-10.2-2.7-18.7
	c0-9.6-0.4-15.6-1.1-18.2c-0.6-2.7-1.9-5.3-3.7-7.4c-1.8-2.1-5.4-3.3-10.5-3.5v-16.8c5,0,8.9-1.5,11.4-4.5c2.6-2.9,3.9-9.5,3.9-19.9
	c0-7.8,0.2-13.6,0.9-17.4c0.4-3.5,1.9-6.8,4.2-9.5c2.3-2.6,5.3-4.6,8.7-5.6c3.5-1,8.5-1.7,15-1.7h3.7L153.3,138.2z M265.3,197
	c-5.2,0-8.9,1.5-11.5,4.5c-2.5,2.9-3.8,9.6-3.8,19.9c0.1,5.9-0.2,11.7-0.9,17.5c-0.4,3.5-1.9,6.8-4.2,9.6c-2.3,2.6-5.3,4.5-8.7,5.6
	c-3.5,1-8.5,1.6-15,1.6h-3.8V239c6.6,0,10.5-0.7,12-2c1.3-1.3,2.2-4.1,2.2-8.3c0.3-11.9,0.8-19.6,1.3-22.9c0.6-3.3,1.8-6.6,3.5-9.5
	c2-3.2,4.9-5.8,8.2-7.6c-3.9-2.7-6.8-5.2-8.4-7.7c-1.6-2.5-2.7-5.4-3.2-8.3c-0.5-2.9-0.9-8.3-1.2-16.5c-0.3-7.9-0.7-12.5-1-13.7
	s-1.3-2.1-2.7-3s-5-1.3-10.9-1.3v-16.7h3.7c7.5,0,13.2,0.9,17.3,2.6c3.9,1.5,7.1,4.5,8.8,8.4c1.9,3.8,2.9,10,2.9,18.7
	c0,9.8,0.3,16,1,18.6c0.8,2.6,2.1,4.9,3.9,6.9c1.8,2.2,5.2,3.2,10.4,3.5L265.3,197z"/>
<g class="st2">
	<path d="M84.6,276.8c0,2.5-1.7,4.8-4.3,4.8c-2.7,0-4.7-1.9-8.6-1.9c-2.8,0-5.3,1.5-5.3,4.2c0,6.7,21.6,2.4,21.6,19.1
		c0,9.3-7.6,15-16.6,15c-5,0-15.8-1.2-15.8-7.3c0-2.5,1.7-4.6,4.3-4.6c3,0,6.7,2.5,10.9,2.5c4.3,0,6.6-2.4,6.6-5.6
		c0-7.6-21.6-3-21.6-18.1c0-9.1,7.5-14.7,16.1-14.7C75.5,270.3,84.6,271.7,84.6,276.8z"/>
	<path d="M99.9,280h-7.1c-3.1,0-4.4-2.3-4.4-4.5c0-2.3,1.6-4.5,4.4-4.5h23.9c2.8,0,4.4,2.2,4.4,4.5c0,2.2-1.3,4.5-4.4,4.5h-7.1v32.5
		c0,3.2-2.1,5.1-4.9,5.1c-2.8,0-4.9-1.8-4.9-5.1V280z"/>
	<path d="M121.4,294.2c0-13.5,9.1-23.9,22.3-23.9c13,0,22.3,10.7,22.3,23.9c0,13.4-9,23.9-22.3,23.9
		C130.6,318,121.4,307.6,121.4,294.2z M155.9,294.2c0-7.8-4.1-14.9-12.2-14.9c-8.1,0-12.2,7.1-12.2,14.9c0,7.9,4,14.9,12.2,14.9
		S155.9,302.1,155.9,294.2z"/>
	<path d="M170,276.2c0-3.1,1.7-5.1,5-5.1h11.4c10,0,16.1,4.5,16.1,14.6c0,7.1-5.4,11.2-12,12.2l11,11.8c0.9,1,1.3,1.9,1.3,2.9
		c0,2.5-2,5-4.9,5c-1.2,0-2.7-0.5-3.8-1.7l-14.4-17.4h-0.1v14.1c0,3.2-2.1,5.1-4.9,5.1c-2.8,0-4.9-1.8-4.9-5.1V276.2z M179.7,291.5
		h6.7c3.6,0,6-2.1,6-5.8c0-3.7-2.5-5.7-6-5.7h-6.7V291.5z"/>
	<path d="M216.8,275.7c1.1-3,3.6-5.4,6.9-5.4c3.4,0,5.8,2.3,6.9,5.4l12.7,35.3c0.4,1,0.5,1.9,0.5,2.4c0,2.5-2.1,4.3-4.5,4.3
		c-2.7,0-4.1-1.4-4.7-3.4l-1.9-6.1h-18l-1.9,6c-0.6,2-2,3.4-4.7,3.4c-2.6,0-4.8-1.9-4.8-4.5c0-1,0.3-1.8,0.5-2.1L216.8,275.7z
		 M217.5,299.2h12.3l-6-18.8h-0.1L217.5,299.2z"/>
	<path d="M282.8,289.9c4.1,0,5.7,2.1,5.7,6.2c0,12.5-8.2,21.9-21.1,21.9c-13.2,0-22.3-10.4-22.3-23.9c0-13.5,9.1-23.9,22.3-23.9
		c9.8,0,17.8,4.6,17.8,9.1c0,2.8-1.7,4.5-4,4.5c-4.4,0-5.3-4.7-13.8-4.7c-8.1,0-12.2,7.1-12.2,14.9c0,7.9,4,14.9,12.2,14.9
		c5.1,0,11-2.9,11-10.2h-6.6c-2.7,0-4.5-1.9-4.5-4.5c0-2.7,2.1-4.4,4.5-4.4H282.8z"/>
	<path d="M292.5,276.7c0-3.2,1.6-5.6,5.1-5.6h16.1c3.1,0,4.6,2.2,4.6,4.5c0,2.2-1.6,4.5-4.6,4.5h-11.4v9.5h10.6
		c3.2,0,4.7,2.2,4.7,4.5c0,2.2-1.6,4.5-4.7,4.5h-10.6v9.9h12c3.1,0,4.6,2.2,4.6,4.5c0,2.2-1.6,4.5-4.6,4.5h-16.7c-2.9,0-5-1.9-5-4.9
		V276.7z"/>
</g>
</svg>
